HIERARCHY
ROOT reference
{
  OFFSET 0 0 0
  CHANNELS 6 Xposition Yposition Zposition Zrotation Xrotation Yrotation
  JOINT Hips
  {
    OFFSET -38.7603 78.2502 -42.6915
    CHANNELS 6 Xposition Yposition Zposition Zrotation Xrotation Yrotation
    JOINT Spine
    {
      OFFSET 0 7.52385 0
      CHANNELS 6 Xposition Yposition Zposition Zrotation Xrotation Yrotation
      JOINT Spine1
      {
        OFFSET 0 21.7843 0
        CHANNELS 6 Xposition Yposition Zposition Zrotation Xrotation Yrotation
        JOINT Neck
        {
          OFFSET 0 21.6948 1.97225
          CHANNELS 6 Xposition Yposition Zposition Zrotation Xrotation Yrotation
          JOINT Head
          {
            OFFSET 0 12.8456 -1.83509
            CHANNELS 6 Xposition Yposition Zposition Zrotation Xrotation Yrotation
            End Site
            {
              OFFSET 0 22.9386 0
            }
          }
        }
        JOINT LeftShoulder
        {
          OFFSET 3.65748 19.7052 -0.211895
          CHANNELS 6 Xposition Yposition Zposition Zrotation Xrotation Yrotation
          JOINT LeftArm
          {
            OFFSET 11.1953 0 0
            CHANNELS 6 Xposition Yposition Zposition Zrotation Xrotation Yrotation
            JOINT LeftForeArm
            {
              OFFSET 29.6607 0 0
              CHANNELS 6 Xposition Yposition Zposition Zrotation Xrotation Yrotation
              JOINT LeftHand
              {
                OFFSET 23.3476 0 0
                CHANNELS 6 Xposition Yposition Zposition Zrotation Xrotation Yrotation
                End Site
                {
                  OFFSET 13.7631 0 0
                }
              }
            }
          }
        }
        JOINT RightShoulder
        {
          OFFSET -3.68053 19.7052 -0.211895
          CHANNELS 6 Xposition Yposition Zposition Zrotation Xrotation Yrotation
          JOINT RightArm
          {
            OFFSET -11.1953 0 0
            CHANNELS 6 Xposition Yposition Zposition Zrotation Xrotation Yrotation
            JOINT RightForeArm
            {
              OFFSET -29.6607 0 0
              CHANNELS 6 Xposition Yposition Zposition Zrotation Xrotation Yrotation
              JOINT RightHand
              {
                OFFSET -23.3476 0 0
                CHANNELS 6 Xposition Yposition Zposition Zrotation Xrotation Yrotation
                End Site
                {
                  OFFSET -13.7631 0 0
                }
              }
            }
          }
        }
      }
    }
    JOINT LeftUpLeg
    {
      OFFSET 9.17543 0 0
      CHANNELS 6 Xposition Yposition Zposition Zrotation Xrotation Yrotation
      JOINT LeftLeg
      {
        OFFSET 0 -39.1216 0
        CHANNELS 6 Xposition Yposition Zposition Zrotation Xrotation Yrotation
        JOINT LeftFoot
        {
          OFFSET 0 -35.3569 0
          CHANNELS 6 Xposition Yposition Zposition Zrotation Xrotation Yrotation
          JOINT LeftToeBase
          {
            OFFSET 0 -5.96403 13.7631
            CHANNELS 6 Xposition Yposition Zposition Zrotation Xrotation Yrotation
            End Site
            {
              OFFSET 0 0 3.67017
            }
          }
        }
      }
    }
    JOINT RightUpLeg
    {
      OFFSET -9.17543 0 0
      CHANNELS 6 Xposition Yposition Zposition Zrotation Xrotation Yrotation
      JOINT RightLeg
      {
        OFFSET 0 -39.1216 0
        CHANNELS 6 Xposition Yposition Zposition Zrotation Xrotation Yrotation
        JOINT RightFoot
        {
          OFFSET 0 -35.3569 0
          CHANNELS 6 Xposition Yposition Zposition Zrotation Xrotation Yrotation
          JOINT RightToeBase
          {
            OFFSET 0 -5.96403 13.7631
            CHANNELS 6 Xposition Yposition Zposition Zrotation Xrotation Yrotation
            End Site
            {
              OFFSET 0 0 3.67017
            }
          }
        }
      }
    }
  }
}
MOTION
Frames:	11
Frame Time:	0.004
0 0 0 0 0 -0 -16.497 75.3881 -216.55 -1.52593 -10.185 1.37171 0 7.52385 0 2.08269 5.37297 0.184371 0 21.7843 0 1.94426 -1.7391 0.306364 1.77636e-015 21.6948 1.97225 -1.40573 8.14623 -1.54011 0 12.8456 -1.83509 0.888952 4.65095 -1.40535 3.65748 19.7052 -0.211895 19.4972 -3.11199 -2.82007 11.1953 0 0 -21.3783 9.12392 2.07732 29.6607 -2.84217e-014 2.84217e-014 2.24629 -4.03814 -1.24795 23.3476 2.84217e-014 -2.84217e-014 1.26908 -4.082 -6.17229 -3.68053 19.7052 -0.211895 -17.4254 0.154509 -2.0059 -11.1953 0 2.84217e-014 23.5781 8.26508 7.21375 -29.6607 -1.42109e-014 0 -1.87838 -5.73356 1.58797 -23.3476 2.84217e-014 2.84217e-014 0.121266 -5.69917 8.05726 9.17543 0 -2.84217e-014 4.97938 14.6125 0.861504 1.77636e-015 -39.1216 0 -0.266666 1.80266 -0.983822 0 -35.3569 0 -0.0722053 -9.43247 9.44314 -7.10543e-015 -5.96403 13.7631 2.98177e-016 3.97569e-016 -3.18055e-015 -9.17543 0 0 -1.37774 15.9646 2.09485 3.55271e-015 -39.1216 2.84217e-014 0.365778 0.974455 2.41276 0 -35.3569 0 1.42916 -8.16603 -19.9618 0 -5.96403 13.7631 4.96962e-017 0 -3.18055e-015 
0 0 0 0 0 -0 -16.497 75.3881 -216.55 -1.5218 -10.1849 1.39504 -3.55271e-015 7.52385 0 2.06965 5.37297 0.184371 0 21.7843 -2.84217e-014 1.96734 -1.7391 0.306364 -1.77636e-015 21.6948 1.97225 -1.40573 8.14623 -1.54011 1.77636e-015 12.8456 -1.83509 0.900013 4.66145 -1.40537 3.65748 19.7052 -0.211895 19.5246 -3.11199 -2.81782 11.1953 2.84217e-014 2.84217e-014 -21.3624 9.15871 2.05598 29.6607 1.42109e-014 0 2.26017 -4.03912 -1.30478 23.3476 -2.84217e-014 0 1.16723 -4.07621 -6.16959 -3.68053 19.7052 -0.211895 -17.414 0.150945 -2.01589 -11.1953 0 0 23.5694 8.25316 7.20205 -29.6607 -1.42109e-014 -2.84217e-014 -1.89062 -5.78201 1.54768 -23.3476 0 0 0.181218 -5.74389 8.06998 9.17543 0 0 4.98611 14.6151 0.874504 1.77636e-015 -39.1216 0 -0.266342 1.80265 -0.994115 0 -35.3569 0 -0.0752807 -9.43321 9.41543 0 -5.96403 13.7631 6.95746e-016 -7.95139e-016 -3.18055e-015 -9.17543 0 -2.84217e-014 -1.37311 15.9644 2.11649 0 -39.1216 -2.84217e-014 0.366349 0.974479 2.37916 3.55271e-015 -35.3569 0 1.41116 -8.15256 -19.9545 1.42109e-014 -5.96403 13.7631 4.96962e-017 3.97569e-016 -0 
0 0 0 0 0 -0 -16.497 75.3881 -216.55 -1.51944 -10.1848 1.40839 5.32907e-015 7.52385 -2.84217e-014 2.06037 5.36859 0.18437 0 21.7843 2.84217e-014 1.98185 -1.7391 0.306364 0 21.6948 1.97225 -1.41015 8.14623 -1.54011 -3.55271e-015 12.8456 -1.83509 0.893819 4.67219 -1.40539 3.65748 19.7052 -0.211895 19.523 -3.11196 -2.82963 11.1953 2.84217e-014 0 -21.355 9.20352 2.0711 29.6607 0 -2.84217e-014 2.27884 -4.06058 -1.33631 23.3476 2.84217e-014 0 1.13088 -4.09475 -6.15795 -3.68053 19.7052 -0.211895 -17.418 0.141735 -2.01677 -11.1953 0 -2.84217e-014 23.5757 8.26014 7.18935 -29.6607 0 0 -1.90353 -5.76597 1.51955 -23.3476 2.84217e-014 -2.84217e-014 0.289836 -5.72047 8.09097 9.17543 0 -2.84217e-014 4.98842 14.6015 0.86857 1.77636e-015 -39.1216 0 -0.26571 1.80264 -1.0142 -8.88178e-016 -35.3569 -2.84217e-014 -0.0563207 -9.43265 9.43645 -7.10543e-015 -5.96403 13.7631 -1.98785e-016 7.95139e-016 -0 -9.17543 0 0 -1.37673 15.9643 2.12623 -3.55271e-015 -39.1216 2.84217e-014 0.366408 0.974481 2.37572 0 -35.3569 0 1.39891 -8.15285 -19.9817 0 -5.96403 13.7631 4.96962e-017 1.98785e-016 -0 
0 0 0 0 0 -0 -16.497 75.3881 -216.553 -1.51705 -10.1847 1.42193 0 7.52385 -2.84217e-014 2.05877 5.36144 0.184397 3.55271e-015 21.7843 0 1.97874 -1.7378 0.306364 1.77636e-015 21.6948 1.97225 -1.39458 8.14623 -1.53933 1.77636e-015 12.8456 -1.83509 0.890238 4.68686 -1.40621 3.65748 19.7052 -0.211895 19.5503 -3.10293 -2.83285 11.1953 2.84217e-014 -2.84217e-014 -21.3535 9.21812 2.05589 29.6607 1.42109e-014 0 2.28529 -4.07164 -1.35835 23.3476 -2.84217e-014 -2.84217e-014 1.09259 -4.10306 -6.13942 -3.68053 19.7052 -0.211895 -17.4121 0.138786 -2.02412 -11.1953 -2.84217e-014 2.84217e-014 23.5826 8.25939 7.17201 -29.6607 -1.42109e-014 -2.84217e-014 -1.89908 -5.76409 1.51273 -23.3476 0 -2.84217e-014 0.301453 -5.71796 8.0839 9.17543 0 -2.84217e-014 4.98716 14.597 0.879463 0 -39.1216 0 -0.266652 1.78789 -0.992386 0 -35.3569 0 -0.0751699 -9.43368 9.39784 0 -5.96403 13.7631 9.93923e-017 -3.97569e-016 1.59028e-015 -9.17543 0 0 -1.37645 15.9643 2.12269 0 -39.1216 0 0.364116 0.975886 2.38156 -3.55271e-015 -35.3569 0 1.40195 -8.15631 -19.9812 0 -5.96403 13.7631 4.96962e-017 0 -0 
0 0 0 0 0 -0 -16.497 75.3881 -216.557 -1.51354 -10.1847 1.44176 0 7.52385 2.84217e-014 2.05738 5.39663 0.179785 1.77636e-015 21.7843 2.84217e-014 1.99147 -1.8029 0.306375 0 21.6948 1.97225 -1.40784 8.14701 -1.53785 -1.77636e-015 12.8456 -1.83509 0.906955 4.72952 -1.40804 3.65748 19.7052 -0.211895 19.558 -3.09543 -2.84469 11.1953 0 -2.84217e-014 -21.3599 9.24936 2.05925 29.6607 0 0 2.30968 -4.08565 -1.37061 23.3476 0 -2.84217e-014 1.02495 -4.11299 -6.14597 -3.68053 19.7052 -0.211895 -17.3927 0.16232 -2.03973 -11.1953 0 0 23.5673 8.25579 7.18295 -29.6607 -1.42109e-014 2.84217e-014 -1.89912 -5.75558 1.49067 -23.3476 2.84217e-014 0 0.306183 -5.70949 8.07861 9.17543 0 0 4.99465 14.5876 0.856572 1.77636e-015 -39.1216 2.84217e-014 -0.265999 1.79406 -1.00983 0 -35.3569 0 -0.0792569 -9.4371 9.41017 0 -5.96403 13.7631 6.95746e-016 3.97569e-016 -1.59028e-015 -9.17543 0 2.84217e-014 -1.37373 15.9645 2.11015 0 -39.1216 0 0.362424 0.977541 2.35167 7.10543e-015 -35.3569 -2.84217e-014 1.43441 -8.15742 -19.9636 0 -5.96403 13.7631 5.51738e-033 -1.98785e-016 1.59028e-015 
0 0 0 0 0 -0 -16.497 75.3881 -216.561 -1.51168 -10.1846 1.4523 -3.55271e-015 7.52385 0 2.05113 5.40021 0.174305 0 21.7843 0 1.99739 -1.80038 0.30248 0 21.6948 1.97225 -1.37826 8.15808 -1.53837 1.77636e-015 12.8456 -1.83509 0.866154 4.72325 -1.40934 3.65748 19.7052 -0.211895 19.5621 -3.08624 -2.85581 11.1953 0 0 -21.3457 9.27218 2.06303 29.6607 -1.42109e-014 0 2.32979 -4.10018 -1.38133 23.3476 0 -2.84217e-014 0.935791 -4.1222 -6.13692 -3.68053 19.7052 -0.211895 -17.3824 0.155875 -2.02969 -11.1953 -2.84217e-014 2.84217e-014 23.5634 8.24892 7.15928 -29.6607 2.84217e-014 -2.84217e-014 -1.89035 -5.75115 1.47883 -23.3476 0 0 0.302658 -5.70557 8.09082 9.17543 0 2.84217e-014 4.99044 14.5926 0.87889 0 -39.1216 0 -0.265186 1.79136 -1.03735 -8.88178e-016 -35.3569 0 -0.0554271 -9.41228 9.41051 0 -5.96403 13.7631 -4.96962e-016 3.97569e-016 -3.18055e-015 -9.17543 0 -2.84217e-014 -1.3747 15.9644 2.11176 0 -39.1216 0 0.362304 0.978735 2.33843 0 -35.3569 0 1.43817 -8.14824 -19.9567 0 -5.96403 13.7631 4.96962e-017 0 3.18055e-015 
0 0 0 0 0 -0 -16.497 75.3881 -216.565 -1.50957 -10.1733 1.46584 1.77636e-015 7.52385 0 2.04269 5.39259 0.169186 0 21.7843 0 2.00825 -1.8031 0.297121 -1.77636e-015 21.6948 1.97225 -1.40516 8.15373 -1.54935 -1.77636e-015 12.8456 -1.83509 0.900844 4.73845 -1.40977 3.65748 19.7052 -0.211895 19.5758 -3.10417 -2.84354 11.1953 0 -2.84217e-014 -21.3474 9.29624 2.05324 29.6607 1.42109e-014 0 2.47358 -3.9477 -1.30124 23.3476 -2.84217e-014 -2.84217e-014 0.263689 -3.93433 -6.37343 -3.68053 19.7052 -0.211895 -17.3897 0.147206 -2.03141 -11.1953 2.84217e-014 0 23.5692 8.22468 7.15097 -29.6607 2.84217e-014 0 -1.87746 -5.73237 1.46196 -23.3476 0 0 0.317327 -5.68619 8.09409 9.17543 0 2.84217e-014 4.99259 14.5745 0.875726 0 -39.1216 -2.84217e-014 -0.264923 1.78839 -1.04748 8.88178e-016 -35.3569 -2.84217e-014 -0.0781799 -9.41504 9.41342 -7.10543e-015 -5.96403 13.7631 3.97569e-016 -3.97569e-016 -0 -9.17543 0 0 -1.37514 15.9501 2.11491 0 -39.1216 0 0.371379 0.97878 2.36303 -3.55271e-015 -35.3569 0 1.41134 -8.15217 -19.9936 0 -5.96403 13.7631 1.98785e-016 0 1.59028e-015 
0 0 0 0 0 -0 -16.497 75.3878 -216.568 -1.50827 -10.1773 1.48731 5.32907e-015 7.52385 0 2.03632 5.39179 0.163346 -1.77636e-015 21.7843 0 2.02728 -1.79564 0.291176 3.55271e-015 21.6948 1.97225 -1.3898 8.12269 -1.54595 -3.55271e-015 12.8456 -1.83509 0.860418 4.79028 -1.41024 3.65748 19.7052 -0.211895 19.5747 -3.10378 -2.84904 11.1953 0 0 -21.345 9.33285 2.05153 29.6607 1.42109e-014 0 2.50417 -3.97349 -1.32004 23.3476 0 0 0.199669 -3.95577 -6.35496 -3.68053 19.7052 -0.211895 -17.397 0.142906 -2.04135 -11.1953 2.84217e-014 -2.84217e-014 23.5714 8.23179 7.14456 -29.6607 0 0 -1.87121 -5.74031 1.44846 -23.3476 0 0 0.268381 -5.69791 8.07854 9.17543 -2.84217e-014 0 4.99687 14.5697 0.852674 0 -39.1216 0 -0.265064 1.79286 -1.04037 8.88178e-016 -35.3569 -2.84217e-014 -0.0698381 -9.41562 9.39707 7.10543e-015 -5.96403 13.7631 9.93923e-017 0 -3.18055e-015 -9.17543 0 0 -1.37411 15.9583 2.12134 0 -39.1216 2.84217e-014 0.379144 0.97089 2.34058 3.55271e-015 -35.3569 -2.84217e-014 1.42101 -8.15159 -20.0043 0 -5.96403 13.7631 -1.49089e-016 3.97569e-016 -0 
0 0 0 0 0 -0 -16.497 75.3781 -216.594 -1.52601 -10.1058 1.56032 0 7.52385 0 2.067 5.35544 0.127992 1.77636e-015 21.7843 2.84217e-014 2.01599 -1.83646 0.257227 1.77636e-015 21.6948 1.97225 -1.38611 8.1344 -1.54656 0 12.8456 -1.83509 0.865442 4.77958 -1.41053 3.65748 19.7052 -0.211895 19.5945 -3.10668 -2.85513 11.1953 0 0 -21.3409 9.34927 2.04922 29.6607 0 0 2.51877 -3.98109 -1.33348 23.3476 0 -2.84217e-014 0.197825 -3.96276 -6.33509 -3.68053 19.7052 -0.211895 -17.3874 0.142758 -2.05139 -11.1953 0 0 23.5682 8.21091 7.14677 -29.6607 2.84217e-014 0 -1.83468 -5.65203 1.43333 -23.3476 2.84217e-014 0 0.25037 -5.61163 8.0669 9.17543 -1.42109e-014 0 5.02918 14.4557 0.803875 -1.77636e-015 -39.1216 0 -0.264815 1.81088 -1.03789 0 -35.3569 -2.84217e-014 -0.0549311 -9.46855 9.37301 7.10543e-015 -5.96403 13.7631 -1.98785e-016 0 3.18055e-015 -9.17543 -1.42109e-014 0 -1.34305 15.863 2.04848 0 -39.1216 0 0.383328 1.00512 2.36949 0 -35.3569 0 1.38281 -8.17681 -20.016 0 -5.96403 13.7631 1.49089e-016 1.98785e-016 -0 
0 0 0 0 0 -0 -16.497 75.3778 -216.597 -1.52915 -10.107 1.57419 0 7.52385 0 2.06323 5.35841 0.1246 -1.77636e-015 21.7843 0 2.02939 -1.83946 0.253761 0 21.6948 1.97225 -1.39233 8.1583 -1.54459 1.77636e-015 12.8456 -1.83509 0.877008 4.74774 -1.41074 3.65748 19.7052 -0.211895 19.6058 -3.11025 -2.8618 11.1953 0 2.84217e-014 -21.3386 9.35499 2.04728 29.6607 -2.84217e-014 0 2.52762 -3.99051 -1.33846 23.3476 0 2.84217e-014 0.199173 -3.97202 -6.3164 -3.68053 19.7052 -0.211895 -17.3894 0.143653 -2.05089 -11.1953 0 0 23.5754 8.04818 7.15431 -29.6607 0 0 -1.83285 -5.5596 1.38035 -23.3476 0 0 0.394248 -5.50979 8.11626 9.17543 0 0 5.04116 14.4438 0.807751 -3.55271e-015 -39.1216 0 -0.263332 1.83217 -1.07222 -8.88178e-016 -35.3569 2.84217e-014 -0.057299 -9.48043 9.38248 0 -5.96403 13.7631 -3.97569e-016 0 -0 -9.17543 0 0 -1.33083 15.8617 2.02634 3.55271e-015 -39.1216 -2.84217e-014 0.384427 1.00827 2.37918 -3.55271e-015 -35.3569 0 1.40709 -8.17597 -20.0196 0 -5.96403 13.7631 -1.49089e-016 3.97569e-016 1.59028e-015 
0 0 0 0 0 -0 -16.497 75.3777 -216.6 -1.52834 -10.1118 1.57734 0 7.52385 -2.84217e-014 2.05212 5.36032 0.12198 0 21.7843 -2.84217e-014 2.03698 -1.83999 0.251243 1.77636e-015 21.6948 1.97225 -1.38943 8.09619 -1.54186 0 12.8456 -1.83509 0.863888 4.85698 -1.4112 3.65748 19.7052 -0.211895 19.6264 -3.11346 -2.86545 11.1953 0 -2.84217e-014 -21.3477 9.35224 2.04795 29.6607 0 -2.84217e-014 2.54918 -3.98851 -1.34687 23.3476 0 2.84217e-014 0.169652 -3.97025 -6.29155 -3.68053 19.7052 -0.211895 -17.3926 0.130417 -2.06055 -11.1953 0 0 23.5741 8.04869 7.15613 -29.6607 0 2.84217e-014 -1.82723 -5.55845 1.35794 -23.3476 0 0 0.371907 -5.51063 8.11878 9.17543 -1.42109e-014 -2.84217e-014 5.03406 14.456 0.807395 -1.77636e-015 -39.1216 -2.84217e-014 -0.267071 1.80946 -1.07753 8.88178e-016 -35.3569 2.84217e-014 -0.0214289 -9.46151 9.3761 7.10543e-015 -5.96403 13.7631 3.97569e-016 7.95139e-016 -0 -9.17543 0 0 -1.33524 15.863 2.04995 -3.55271e-015 -39.1216 2.84217e-014 0.385572 1.0125 2.35883 0 -35.3569 -2.84217e-014 1.38749 -8.17701 -20.0218 0 -5.96403 13.7631 9.93923e-017 0 -0 
